<svg width="70" height="60" viewBox="0 0 70 60" fill="none" xmlns="http://www.w3.org/2000/svg">
<path d="M39.0294 15.9438L39.6918 16.1712V15.4709V15.326C39.6918 7.12824 46.2018 0.5 54.2113 0.5C62.2207 0.5 68.7308 7.12824 68.7308 15.326V58.6952C68.7308 59.149 68.3729 59.4996 67.9526 59.4996H60.283C59.8627 59.4996 59.5047 59.149 59.5047 58.6952V15.326C59.5047 12.358 57.1443 9.93471 54.2113 9.93471C51.2783 9.93471 48.9178 12.358 48.9178 15.326V29.9998V58.6952C48.9178 59.149 48.5599 59.4996 48.1396 59.4996H40.47C40.0497 59.4996 39.6918 59.149 39.6918 58.6952V29.9998C39.6918 27.0318 37.3313 24.6085 34.3983 24.6085C31.4653 24.6085 29.1048 27.0318 29.1048 29.9998V44.6736C29.1048 52.8713 22.5947 59.4996 14.5853 59.4996H14.4729C12.0286 59.4806 9.72896 58.8454 7.71449 57.7383L7.62378 57.6876C4.14645 55.7439 1.53128 52.3879 0.521437 48.3735L0.0367691 48.4954L0.521435 48.3735C0.426842 47.9975 0.660889 47.6064 1.0573 47.5015L8.32066 45.58C8.55483 45.518 8.80435 45.572 9.04309 45.7395C9.28595 45.9098 9.49198 46.1832 9.60077 46.4924C10.178 48.1332 11.5152 49.4097 13.1877 49.8748L13.2121 49.8819L13.2121 49.882L13.2239 49.8852C13.6588 50.0028 14.1152 50.0653 14.5853 50.0653H15.0853V50.0412C17.782 49.7843 19.8788 47.4708 19.8788 44.6736V29.9998V1.30434C19.8788 0.850552 20.2367 0.5 20.657 0.5H28.3266C28.7469 0.5 29.1048 0.850537 29.1048 1.30434V15.4709V16.1712L29.7672 15.9438C31.2211 15.4445 32.7783 15.1738 34.3983 15.1738C36.0183 15.1738 37.5755 15.4445 39.0294 15.9438Z" fill="url(#paint0_linear_4_256)" stroke="#2A841A"/>
<defs>
<linearGradient id="paint0_linear_4_256" x1="34.6154" y1="0" x2="34.6154" y2="60" gradientUnits="userSpaceOnUse">
<stop stop-color="#76CB66"/>
<stop offset="1" stop-color="#43A432"/>
</linearGradient>
</defs>
</svg>
